<svg width="232" height="216" viewBox="0 0 232 216" fill="none" xmlns="http://www.w3.org/2000/svg">
<rect width="232" height="216" fill="#E4E4E4"/>
<path d="M114.067 118.153C121.92 118.153 128.286 111.787 128.286 103.934C128.286 96.0809 121.92 89.7148 114.067 89.7148C106.214 89.7148 99.8477 96.0809 99.8477 103.934C99.8477 111.787 106.214 118.153 114.067 118.153Z" stroke="#9E9E9E"/>
<path d="M114.067 46.8223C116.918 46.8223 119.229 44.5116 119.229 41.6612C119.229 38.8107 116.918 36.5 114.067 36.5C111.217 36.5 108.906 38.8107 108.906 41.6612C108.906 44.5116 111.217 46.8223 114.067 46.8223Z" stroke="#9E9E9E"/>
<path d="M159.356 64.9376C162.207 64.9376 164.518 62.6268 164.518 59.7764C164.518 56.926 162.207 54.6152 159.356 54.6152C156.506 54.6152 154.195 56.926 154.195 59.7764C154.195 62.6268 156.506 64.9376 159.356 64.9376Z" fill="#9E9E9E" stroke="#9E9E9E"/>
<path d="M177.47 109.096C180.32 109.096 182.631 106.785 182.631 103.935C182.631 101.084 180.32 98.7734 177.47 98.7734C174.619 98.7734 172.309 101.084 172.309 103.935C172.309 106.785 174.619 109.096 177.47 109.096Z" stroke="#9E9E9E"/>
<path d="M159.356 154.385C162.207 154.385 164.518 152.074 164.518 149.224C164.518 146.373 162.207 144.062 159.356 144.062C156.506 144.062 154.195 146.373 154.195 149.224C154.195 152.074 156.506 154.385 159.356 154.385Z" fill="#9E9E9E" stroke="#9E9E9E"/>
<path d="M114.067 172.5C116.918 172.5 119.229 170.189 119.229 167.339C119.229 164.488 116.918 162.178 114.067 162.178C111.217 162.178 108.906 164.488 108.906 167.339C108.906 170.189 111.217 172.5 114.067 172.5Z" stroke="#9E9E9E"/>
<path d="M68.7783 154.385C71.6288 154.385 73.9395 152.074 73.9395 149.224C73.9395 146.373 71.6288 144.062 68.7783 144.062C65.9279 144.062 63.6172 146.373 63.6172 149.224C63.6172 152.074 65.9279 154.385 68.7783 154.385Z" fill="#9E9E9E" stroke="#9E9E9E"/>
<path d="M50.6612 110.227C53.5116 110.227 55.8223 107.916 55.8223 105.065C55.8223 102.215 53.5116 99.9043 50.6612 99.9043C47.8107 99.9043 45.5 102.215 45.5 105.065C45.5 107.916 47.8107 110.227 50.6612 110.227Z" stroke="#9E9E9E"/>
<path d="M68.7783 64.9376C71.6288 64.9376 73.9395 62.6268 73.9395 59.7764C73.9395 56.926 71.6288 54.6152 68.7783 54.6152C65.9279 54.6152 63.6172 56.926 63.6172 59.7764C63.6172 62.6268 65.9279 64.9376 68.7783 64.9376Z" fill="#9E9E9E" stroke="#9E9E9E"/>
<path d="M114.066 134.004C130.674 134.004 144.136 120.541 144.136 103.933C144.136 87.3262 130.674 73.8633 114.066 73.8633C97.459 73.8633 83.9961 87.3262 83.9961 103.933C83.9961 120.541 97.459 134.004 114.066 134.004Z" stroke="#9E9E9E"/>
<path d="M114.066 46.1895V162.809" stroke="#9E9E9E"/>
<path d="M155.032 63.0039L72.1758 145.827" stroke="#9E9E9E"/>
<path d="M172.942 103.746L56.332 105.253" stroke="#9E9E9E"/>
<path d="M155.955 145.827L72.043 62.9434" stroke="#9E9E9E"/>
</svg>
