<svg width="961" height="645" viewBox="0 0 961 645" fill="none" xmlns="http://www.w3.org/2000/svg">
<path d="M960 1H1V644.5H730L960 430V1Z" fill="#E4E4E4" stroke="#9E9E9E"/>
<path d="M111 142L841 142" stroke="#9B9B9B" stroke-dasharray="3 3"/>
<path d="M111 96L841 96.0001" stroke="#9B9B9B" stroke-dasharray="3 3"/>
<path d="M111 185L841 185" stroke="#9B9B9B" stroke-dasharray="3 3"/>
<path d="M111 234L841 234" stroke="#9B9B9B" stroke-dasharray="3 3"/>
<path d="M111 287L841 287" stroke="#9B9B9B" stroke-dasharray="3 3"/>
<path d="M111 335L841 335" stroke="#9B9B9B" stroke-dasharray="3 3"/>
<path d="M111 387L841 387" stroke="#9B9B9B" stroke-dasharray="3 3"/>
<path d="M111 431H787" stroke="#9B9B9B" stroke-dasharray="3 3"/>
<path d="M111 480H722" stroke="#9B9B9B" stroke-dasharray="3 3"/>
<path d="M111 531H675" stroke="#9B9B9B" stroke-dasharray="3 3"/>
<path d="M217.191 530.998L217.191 96.0143" stroke="#9B9B9B" stroke-dasharray="3 3"/>
<path d="M111 530.998L111 96.0143" stroke="#9B9B9B" stroke-dasharray="3 3"/>
<path d="M162 530.984L162 96.0006" stroke="#9B9B9B" stroke-dasharray="3 3"/>
<path d="M277.438 531L277.438 96.0162" stroke="#9B9B9B" stroke-dasharray="3 3"/>
<path d="M341.59 531L341.59 96.0162" stroke="#9B9B9B" stroke-dasharray="3 3"/>
<path d="M397.148 531L397.148 96.0162" stroke="#9B9B9B" stroke-dasharray="3 3"/>
<path d="M452.691 531L452.691 96.0162" stroke="#9B9B9B" stroke-dasharray="3 3"/>
<path d="M508.25 531L508.25 96.0162" stroke="#9B9B9B" stroke-dasharray="3 3"/>
<path d="M563.797 531L563.797 96.0162" stroke="#9B9B9B" stroke-dasharray="3 3"/>
<path d="M619.352 531L619.352 96.0162" stroke="#9B9B9B" stroke-dasharray="3 3"/>
<path d="M674.902 531L674.902 96.0162" stroke="#9B9B9B" stroke-dasharray="3 3"/>
<path d="M730.695 480.111L730.695 96.0006" stroke="#9B9B9B" stroke-dasharray="3 3"/>
<path d="M785.379 431.318L785.379 96.0001" stroke="#9B9B9B" stroke-dasharray="3 3"/>
<path d="M841.429 96.001L841.429 386.679L676.016 530.98" stroke="#9B9B9B" stroke-dasharray="3 3"/>
</svg>
